<svg width="1983" height="924" xmlns="http://www.w3.org/2000/svg" xmlns:xlink="http://www.w3.org/1999/xlink" xml:space="preserve" overflow="hidden"><g transform="translate(-1209 -783)"><rect x="1210.5" y="784.5" width="536" height="330" stroke="#000000" stroke-width="3.4375" stroke-miterlimit="8" fill="#FFFFFF"/><text font-family="Arial,Arial_MSFontService,sans-serif" font-weight="700" font-size="46" transform="matrix(1 0 0 1 1243 846)">DSE Smith:</text><text font-family="Arial,Arial_MSFontService,sans-serif" font-weight="400" font-size="46" transform="matrix(1 0 0 1 1243 928)">Phonenumber</text><text font-family="Arial,Arial_MSFontService,sans-serif" font-weight="400" font-size="46" transform="matrix(1 0 0 1 1528.89 928)">: 123</text><text font-family="Arial,Arial_MSFontService,sans-serif" font-weight="400" font-size="46" transform="matrix(1 0 0 1 1243 983)">…</text><text font-family="Arial,Arial_MSFontService,sans-serif" font-weight="400" font-size="46" transform="matrix(1 0 0 1 1243 1038)">See Also: Hohner</text><text font-family="Arial,Arial_MSFontService,sans-serif" font-weight="400" font-size="46" transform="matrix(1 0 0 1 1243 1093)">….</text><rect x="1210.5" y="1361.5" width="536" height="330" stroke="#000000" stroke-width="3.4375" stroke-miterlimit="8" fill="#FFFFFF"/><text font-family="Arial,Arial_MSFontService,sans-serif" font-weight="700" font-size="46" transform="matrix(1 0 0 1 1243 1422)">DSE Jones:</text><text font-family="Arial,Arial_MSFontService,sans-serif" font-weight="400" font-size="46" transform="matrix(1 0 0 1 1243 1504)">Phonenumber: 456</text><text font-family="Arial,Arial_MSFontService,sans-serif" font-weight="400" font-size="46" transform="matrix(1 0 0 1 1243 1559)">…</text><text font-family="Arial,Arial_MSFontService,sans-serif" font-weight="400" font-size="46" transform="matrix(1 0 0 1 1243 1614)">See Also: Hohner</text><text font-family="Arial,Arial_MSFontService,sans-serif" font-weight="400" font-size="46" transform="matrix(1 0 0 1 1243 1669)">….</text><rect x="1911.5" y="1114.5" width="413" height="247" stroke="#000000" stroke-width="3.4375" stroke-miterlimit="8" stroke-dasharray="27.5 10.3125" fill="#FFFFFF"/><text font-family="Arial,Arial_MSFontService,sans-serif" font-weight="700" font-size="46" transform="matrix(1 0 0 1 1944.25 1165)">DSE </text><text font-family="Arial,Arial_MSFontService,sans-serif" font-weight="700" font-size="46" transform="matrix(1 0 0 1 2050.81 1165)">pseudo </text><text font-family="Arial,Arial_MSFontService,sans-serif" font-weight="700" font-size="46" transform="matrix(1 0 0 1 1944.25 1211)">object</text><text font-family="Arial,Arial_MSFontService,sans-serif" font-weight="700" font-size="46" transform="matrix(1 0 0 1 2091.49 1211)">Hohner:</text><text font-family="Arial,Arial_MSFontService,sans-serif" font-weight="400" font-size="46" transform="matrix(1 0 0 1 1944.25 1285)">Reference to </text><text font-family="Arial,Arial_MSFontService,sans-serif" font-weight="400" font-size="46" transform="matrix(1 0 0 1 1944.25 1330)">DSE Hohner</text><rect x="2613.5" y="1073.5" width="577" height="330" stroke="#000000" stroke-width="3.4375" stroke-miterlimit="8" fill="#FFFFFF"/><text font-family="Arial,Arial_MSFontService,sans-serif" font-weight="700" font-size="46" transform="matrix(1 0 0 1 2645.5 1134)">DSE Hohner:</text><text font-family="Arial,Arial_MSFontService,sans-serif" font-weight="400" font-size="46" transform="matrix(1 0 0 1 2645.5 1216)">Phonenumber: 789</text><text font-family="Arial,Arial_MSFontService,sans-serif" font-weight="400" font-size="46" transform="matrix(1 0 0 1 2645.5 1271)">Employee number: 1002</text><text font-family="Arial,Arial_MSFontService,sans-serif" font-weight="400" font-size="46" transform="matrix(1 0 0 1 2645.5 1326)">….</text><path d="M1624.62 989.195 1645.5 1007.09 1643.26 1009.7 1622.38 991.805ZM1653.33 1013.8 1674.21 1031.7 1671.97 1034.31 1651.09 1016.41ZM1682.04 1038.41 1702.92 1056.31 1700.68 1058.92 1679.8 1041.02ZM1710.75 1063.02 1731.63 1080.92 1729.39 1083.53 1708.51 1065.63ZM1739.46 1087.63 1760.34 1105.52 1758.1 1108.13 1737.22 1090.24ZM1768.17 1112.24 1789.05 1130.13 1786.81 1132.74 1765.93 1114.84ZM1796.87 1136.84 1817.75 1154.74 1815.52 1157.35 1794.64 1139.45ZM1825.58 1161.45 1846.46 1179.35 1844.23 1181.96 1823.35 1164.06ZM1854.29 1186.06 1875.17 1203.96 1872.94 1206.57 1852.06 1188.67ZM1883 1210.67 1895.97 1221.78 1893.73 1224.39 1880.77 1213.28ZM1900.32 1209.66 1912.25 1238 1882.42 1230.54Z"/><path d="M1.29349-1.1318 19.4024 19.5641 16.8154 21.8277-1.29349 1.1318ZM26.1932 27.325 44.3021 48.0209 41.7151 50.2845 23.6062 29.5886ZM51.0929 55.7818 69.2018 76.4777 66.6148 78.7413 48.5059 58.0454ZM75.9926 84.2386 94.1015 104.934 91.5145 107.198 73.4056 86.5022ZM100.892 112.695 119.001 133.391 116.414 135.655 98.3053 114.959ZM125.792 141.152 143.901 161.848 141.314 164.112 123.205 143.416ZM150.692 169.609 168.801 190.305 166.214 192.568 148.105 171.873ZM175.591 198.066 193.7 218.762 191.113 221.025 173.004 200.329ZM200.491 226.523 218.6 247.219 216.013 249.482 197.904 228.786ZM225.391 254.979 243.5 275.675 240.913 277.939 222.804 257.243ZM250.291 283.436 268.399 304.132 265.812 306.396 247.704 285.7ZM280.989 300.25 288.75 330 260.293 318.359Z" transform="matrix(1 0 0 -1 1623.5 1567.5)"/><path d="M2324.5 1235.78 2352 1235.78 2352 1239.22 2324.5 1239.22ZM2362.31 1235.78 2389.81 1235.78 2389.81 1239.22 2362.31 1239.22ZM2400.12 1235.78 2427.62 1235.78 2427.62 1239.22 2400.12 1239.22ZM2437.94 1235.78 2465.44 1235.78 2465.44 1239.22 2437.94 1239.22ZM2475.75 1235.78 2503.25 1235.78 2503.25 1239.22 2475.75 1239.22ZM2513.56 1235.78 2541.06 1235.78 2541.06 1239.22 2513.56 1239.22ZM2551.38 1235.78 2578.88 1235.78 2578.88 1239.22 2551.38 1239.22ZM2589.19 1235.78 2590.33 1235.78 2590.33 1239.22 2589.19 1239.22ZM2585.75 1223.75 2613.25 1237.5 2585.75 1251.25Z"/></g></svg>