<svg xmlns="http://www.w3.org/2000/svg" viewBox="0 0 100 100"><path d="M76.61 66.56c0 7.38-2.59 13.63-7.76 18.76-5.17 5.12-11.44 7.69-18.81 7.69s-13.65-2.56-18.85-7.69c-5.2-5.12-7.79-11.38-7.79-18.76V25.7c0-5.2 1.85-9.61 5.54-13.25 3.69-3.64 8.12-5.46 13.28-5.46s9.59 1.82 13.28 5.46c3.69 3.64 5.54 8.05 5.54 13.25v38.7c0 3.01-1.07 5.59-3.22 7.74s-4.75 3.22-7.79 3.22-5.64-1.06-7.79-3.19c-2.15-2.13-3.22-4.72-3.22-7.78V24.63h6.45V64.4c0 1.22.45 2.28 1.34 3.17s1.99 1.34 3.29 1.34 2.38-.45 3.23-1.34c.85-.9 1.27-1.95 1.27-3.17V25.7c0-3.44-1.2-6.34-3.6-8.71s-5.33-3.55-8.78-3.55-6.38 1.18-8.76 3.55c-2.39 2.37-3.58 5.27-3.58 8.7v40.85c0 5.59 1.97 10.32 5.91 14.19s8.71 5.81 14.3 5.81 10.33-1.93 14.24-5.81c3.91-3.87 5.86-8.6 5.86-14.19V24.63h6.45v41.93z"/></svg>