<svg id="Ebene_2" data-name="Ebene 2" xmlns="http://www.w3.org/2000/svg" viewBox="0 0 284.34 105.53"><defs><style>.cls-1{stroke-width:0}</style></defs><g id="black"><g id="DirX"><path id="new_X" data-name="new X" class="cls-1" d="M283.97 103.67a3.4 3.4 0 01-3.03 1.86h-19.19c-1.1 0-2.13-.53-2.77-1.43l-26.41-36.96h-8.53l-22.95 31.59h10.51l16.73-23.75 4.19 5.87-16.38 23.24c-.64.9-1.67 1.44-2.78 1.44h-18.94a3.4 3.4 0 01-2.75-5.4l27.89-38.39c.64-.88 1.66-1.4 2.75-1.4h12.01c1.09 0 2.12.53 2.76 1.43l26.42 36.96h10.77l-29.73-40.95c-.86-1.19-.87-2.8 0-3.99l27.44-37.86h-9.63l-24.91 35.02c-.64.89-1.67 1.42-2.77 1.43l-12.31.02c-1.09 0-2.12-.53-2.76-1.42l-26.14-36.47c-.75-1.04-.85-2.4-.26-3.54a3.397 3.397 0 013.02-1.84h18.81c1.09 0 2.12.52 2.76 1.41L233 31.64l-4.16 5.85-15.55-21.56h-10.45l21.27 29.66h8.81l24.91-35.03c.64-.9 1.67-1.43 2.77-1.43h18.05a3.391 3.391 0 012.75 5.39l-29.9 41.26 32.2 44.35a3.4 3.4 0 01.28 3.54z"/><path id="r" class="cls-1" d="M150 104.99V32.37h16.18v19.99l-1.9-5.85c2.18-4.9 5.6-8.61 10.27-11.15 4.67-2.54 10.49-3.81 17.48-3.81v16.18c-.73-.18-1.41-.29-2.04-.34-.64-.04-1.27-.07-1.9-.07-6.44 0-11.56 1.88-15.37 5.64-3.81 3.76-5.71 9.36-5.71 16.8v35.22h-17z"/><path id="i" class="cls-1" d="M119.27 20.4c-3.17 0-5.78-1-7.82-2.99-2.04-1.99-3.06-4.4-3.06-7.21s1.02-5.33 3.06-7.28C113.49.97 116.1 0 119.27 0s5.78.93 7.82 2.79c2.04 1.86 3.06 4.19 3.06 7 0 2.99-1 5.51-2.99 7.55-2 2.04-4.62 3.06-7.89 3.06zm-8.57 84.59V32.37h17v72.62h-17z"/><path id="D" class="cls-1" d="M0 104.99V9.79h41.62c10.34 0 19.4 2 27.2 5.98 7.8 3.99 13.87 9.52 18.22 16.59s6.53 15.41 6.53 25.02-2.18 17.84-6.53 24.96C82.69 89.46 76.61 95.01 68.82 99c-7.8 3.99-16.86 5.98-27.2 5.98H0zm17.68-14.96H40.8c7.16 0 13.35-1.36 18.56-4.08 5.21-2.72 9.25-6.53 12.1-11.42s4.28-10.61 4.28-17.14-1.43-12.35-4.28-17.2c-2.86-4.85-6.89-8.64-12.1-11.36-5.21-2.72-11.4-4.08-18.56-4.08H17.68v65.28z"/></g></g></svg>